<?xml version="1.0"?>
<svg xmlns="http://www.w3.org/2000/svg" height="512px" viewBox="0 0 512 512" width="512px"><path d="m452 60h-121.007812v-60h-269.992188v422h-61v90h512v-90h-60zm-121 362v-30h91v30zm91-60h-91.011719v-212h91.011719zm-121-90h-90v-92h90zm-120 90h-90v-272h90zm30-60h90v120h-90zm211-212v30h-91.007812v-30zm-121 60h-90v-120h90zm-120-120v30h-90v-30zm-90 362h90v30h-90zm391 90h-452v-30h452zm0 0" fill="#787878"/><path d="m121 150h30v152h-30zm0 0" fill="#787878"/><path d="m241 332h30v30h-30zm0 0" fill="#787878"/><path d="m241 90h30v30h-30zm0 0" fill="#787878"/></svg>
